<mxfile host="app.diagrams.net" modified="2024-01-13T18:00:36.421Z" agent="Mozilla/5.0 (Windows NT 10.0; Win64; x64; rv:121.0) Gecko/20100101 Firefox/121.0" etag="u99edsOEuj4MxTLDyItV" version="22.1.18" type="github">
  <diagram name="Seite-1" id="BkYPdoqLZf4NpOzS8NUO">
    <mxGraphModel dx="2514" dy="887" grid="1" gridSize="10" guides="1" tooltips="1" connect="1" arrows="1" fold="1" page="1" pageScale="1" pageWidth="827" pageHeight="1169" math="0" shadow="0">
      <root>
        <mxCell id="0" />
        <mxCell id="1" parent="0" />
        <mxCell id="s_3gzIjei6b70b8lLRIj-2" value="&lt;div&gt;BTC-&lt;/div&gt;Kaufen" style="whiteSpace=wrap;html=1;aspect=fixed;" vertex="1" parent="1">
          <mxGeometry x="400" y="800" width="80" height="80" as="geometry" />
        </mxCell>
        <mxCell id="s_3gzIjei6b70b8lLRIj-3" value="&lt;div&gt;Check-&lt;/div&gt;&lt;div&gt;Kraken-&lt;br&gt;&lt;/div&gt;&lt;div&gt;Balance&lt;/div&gt;" style="whiteSpace=wrap;html=1;aspect=fixed;" vertex="1" parent="1">
          <mxGeometry x="360" y="160" width="80" height="80" as="geometry" />
        </mxCell>
        <mxCell id="s_3gzIjei6b70b8lLRIj-4" value="Check &lt;br&gt;EUR-BTC" style="whiteSpace=wrap;html=1;aspect=fixed;" vertex="1" parent="1">
          <mxGeometry x="640" y="620" width="80" height="80" as="geometry" />
        </mxCell>
        <mxCell id="s_3gzIjei6b70b8lLRIj-5" value="Telegram:&lt;br&gt;&lt;div&gt;- BTC-Menge&lt;/div&gt;&lt;div&gt;- EUR-Gegenwer&lt;/div&gt;&lt;div&gt;- Kraken-Menge&lt;/div&gt;&lt;div&gt;- Wallet-Überweisung&lt;/div&gt;&lt;div&gt;Wallet-Balance&lt;br&gt;&lt;/div&gt;" style="whiteSpace=wrap;html=1;aspect=fixed;" vertex="1" parent="1">
          <mxGeometry x="400" y="960" width="80" height="80" as="geometry" />
        </mxCell>
        <mxCell id="s_3gzIjei6b70b8lLRIj-6" value="CSV" style="whiteSpace=wrap;html=1;aspect=fixed;" vertex="1" parent="1">
          <mxGeometry x="-120" y="520" width="80" height="80" as="geometry" />
        </mxCell>
        <mxCell id="s_3gzIjei6b70b8lLRIj-7" value="Neue Überweisung" style="rounded=1;whiteSpace=wrap;html=1;" vertex="1" parent="1">
          <mxGeometry x="130" y="520" width="120" height="60" as="geometry" />
        </mxCell>
        <mxCell id="s_3gzIjei6b70b8lLRIj-8" value="Genug auf Kraken" style="rounded=1;whiteSpace=wrap;html=1;" vertex="1" parent="1">
          <mxGeometry x="280" y="520" width="120" height="60" as="geometry" />
        </mxCell>
        <mxCell id="s_3gzIjei6b70b8lLRIj-9" value="Zu wenig auf Kraken" style="rounded=1;whiteSpace=wrap;html=1;" vertex="1" parent="1">
          <mxGeometry x="440" y="520" width="120" height="60" as="geometry" />
        </mxCell>
        <mxCell id="s_3gzIjei6b70b8lLRIj-10" value="Nichts auf Kraken" style="rounded=1;whiteSpace=wrap;html=1;" vertex="1" parent="1">
          <mxGeometry x="600" y="520" width="120" height="60" as="geometry" />
        </mxCell>
        <mxCell id="s_3gzIjei6b70b8lLRIj-11" value="&lt;div&gt;Mindestkaufmenge:&lt;/div&gt;&lt;div align=&quot;center&quot;&gt;&lt;span data-sheets-value=&quot;{&amp;quot;1&amp;quot;:3,&amp;quot;3&amp;quot;:0.0002}&quot; data-sheets-userformat=&quot;{&amp;quot;2&amp;quot;:1,&amp;quot;3&amp;quot;:[null,2,&amp;quot;0.00000&amp;quot;,1]}&quot; data-sheets-formula=&quot;=INDEX(&#39;Parameter updates&#39;!C[21]:C[21],MATCH(R[0]C[-1],&#39;Parameter updates&#39;!C[2]:C[2],0))&quot;&gt;0.0001 BTC&lt;/span&gt;&lt;/div&gt;" style="text;whiteSpace=wrap;html=1;" vertex="1" parent="1">
          <mxGeometry x="700" y="40" width="100" height="40" as="geometry" />
        </mxCell>
        <mxCell id="s_3gzIjei6b70b8lLRIj-12" value="Check CSV" style="whiteSpace=wrap;html=1;aspect=fixed;" vertex="1" parent="1">
          <mxGeometry x="360" y="280" width="80" height="80" as="geometry" />
        </mxCell>
        <mxCell id="s_3gzIjei6b70b8lLRIj-13" value="Sparplan variabel" style="rounded=0;whiteSpace=wrap;html=1;" vertex="1" parent="1">
          <mxGeometry x="280" y="40" width="240" height="60" as="geometry" />
        </mxCell>
        <mxCell id="s_3gzIjei6b70b8lLRIj-14" value="Sparplan fest" style="rounded=0;whiteSpace=wrap;html=1;" vertex="1" parent="1">
          <mxGeometry x="-480" y="40" width="240" height="60" as="geometry" />
        </mxCell>
        <mxCell id="s_3gzIjei6b70b8lLRIj-15" value="Check Date" style="whiteSpace=wrap;html=1;aspect=fixed;" vertex="1" parent="1">
          <mxGeometry x="360" y="400" width="80" height="80" as="geometry" />
        </mxCell>
      </root>
    </mxGraphModel>
  </diagram>
</mxfile>
